<?xml version="1.0" encoding="UTF-8"?>
<svg xmlns="http://www.w3.org/2000/svg" width="882" height="174" viewBox="0 0 882 174">
  <rect width="100%" height="100%" fill="#0d1117"/>
  <text x="18" y="22" fill="#ffffff" font-size="16" font-family="Arial, sans-serif" font-weight="700">
    Pacman Contribution Graph
  </text>

  <rect
    x="18"
    y="46"
    width="14"
    height="14"
    rx="4"
    fill="#9be9a8"
    opacity="1"
  />
  <rect
    x="34"
    y="46"
    width="14"
    height="14"
    rx="4"
    fill="#216e39"
    opacity="1"
  />
  <rect
    x="50"
    y="46"
    width="14"
    height="14"
    rx="4"
    fill="#30a14e"
    opacity="1"
  />
  <rect
    x="66"
    y="46"
    width="14"
    height="14"
    rx="4"
    fill="#30a14e"
    opacity="1"
  />
  <rect
    x="82"
    y="46"
    width="14"
    height="14"
    rx="4"
    fill="#161b22"
    opacity="0.95"
  />
  <rect
    x="98"
    y="46"
    width="14"
    height="14"
    rx="4"
    fill="#40c463"
    opacity="1"
  />
  <rect
    x="114"
    y="46"
    width="14"
    height="14"
    rx="4"
    fill="#161b22"
    opacity="0.95"
  />
  <rect
    x="130"
    y="46"
    width="14"
    height="14"
    rx="4"
    fill="#161b22"
    opacity="0.95"
  />
  <rect
    x="146"
    y="46"
    width="14"
    height="14"
    rx="4"
    fill="#40c463"
    opacity="1"
  />
  <rect
    x="162"
    y="46"
    width="14"
    height="14"
    rx="4"
    fill="#30a14e"
    opacity="1"
  />
  <rect
    x="178"
    y="46"
    width="14"
    height="14"
    rx="4"
    fill="#161b22"
    opacity="0.95"
  />
  <rect
    x="194"
    y="46"
    width="14"
    height="14"
    rx="4"
    fill="#216e39"
    opacity="1"
  />
  <rect
    x="210"
    y="46"
    width="14"
    height="14"
    rx="4"
    fill="#161b22"
    opacity="0.95"
  />
  <rect
    x="226"
    y="46"
    width="14"
    height="14"
    rx="4"
    fill="#30a14e"
    opacity="1"
  />
  <rect
    x="242"
    y="46"
    width="14"
    height="14"
    rx="4"
    fill="#161b22"
    opacity="0.95"
  />
  <rect
    x="258"
    y="46"
    width="14"
    height="14"
    rx="4"
    fill="#161b22"
    opacity="0.95"
  />
  <rect
    x="274"
    y="46"
    width="14"
    height="14"
    rx="4"
    fill="#9be9a8"
    opacity="1"
  />
  <rect
    x="290"
    y="46"
    width="14"
    height="14"
    rx="4"
    fill="#9be9a8"
    opacity="1"
  />
  <rect
    x="306"
    y="46"
    width="14"
    height="14"
    rx="4"
    fill="#216e39"
    opacity="1"
  />
  <rect
    x="322"
    y="46"
    width="14"
    height="14"
    rx="4"
    fill="#216e39"
    opacity="1"
  />
  <rect
    x="338"
    y="46"
    width="14"
    height="14"
    rx="4"
    fill="#161b22"
    opacity="0.95"
  />
  <rect
    x="354"
    y="46"
    width="14"
    height="14"
    rx="4"
    fill="#9be9a8"
    opacity="1"
  />
  <rect
    x="370"
    y="46"
    width="14"
    height="14"
    rx="4"
    fill="#216e39"
    opacity="1"
  />
  <rect
    x="386"
    y="46"
    width="14"
    height="14"
    rx="4"
    fill="#216e39"
    opacity="1"
  />
  <rect
    x="402"
    y="46"
    width="14"
    height="14"
    rx="4"
    fill="#40c463"
    opacity="1"
  />
  <rect
    x="418"
    y="46"
    width="14"
    height="14"
    rx="4"
    fill="#161b22"
    opacity="0.95"
  />
  <rect
    x="434"
    y="46"
    width="14"
    height="14"
    rx="4"
    fill="#40c463"
    opacity="1"
  />
  <rect
    x="450"
    y="46"
    width="14"
    height="14"
    rx="4"
    fill="#40c463"
    opacity="1"
  />
  <rect
    x="466"
    y="46"
    width="14"
    height="14"
    rx="4"
    fill="#30a14e"
    opacity="1"
  />
  <rect
    x="482"
    y="46"
    width="14"
    height="14"
    rx="4"
    fill="#40c463"
    opacity="1"
  />
  <rect
    x="498"
    y="46"
    width="14"
    height="14"
    rx="4"
    fill="#40c463"
    opacity="1"
  />
  <rect
    x="514"
    y="46"
    width="14"
    height="14"
    rx="4"
    fill="#161b22"
    opacity="0.95"
  />
  <rect
    x="530"
    y="46"
    width="14"
    height="14"
    rx="4"
    fill="#216e39"
    opacity="1"
  />
  <rect
    x="546"
    y="46"
    width="14"
    height="14"
    rx="4"
    fill="#161b22"
    opacity="0.95"
  />
  <rect
    x="562"
    y="46"
    width="14"
    height="14"
    rx="4"
    fill="#161b22"
    opacity="0.95"
  />
  <rect
    x="578"
    y="46"
    width="14"
    height="14"
    rx="4"
    fill="#30a14e"
    opacity="1"
  />
  <rect
    x="594"
    y="46"
    width="14"
    height="14"
    rx="4"
    fill="#30a14e"
    opacity="1"
  />
  <rect
    x="610"
    y="46"
    width="14"
    height="14"
    rx="4"
    fill="#161b22"
    opacity="0.95"
  />
  <rect
    x="626"
    y="46"
    width="14"
    height="14"
    rx="4"
    fill="#30a14e"
    opacity="1"
  />
  <rect
    x="642"
    y="46"
    width="14"
    height="14"
    rx="4"
    fill="#161b22"
    opacity="0.95"
  />
  <rect
    x="658"
    y="46"
    width="14"
    height="14"
    rx="4"
    fill="#216e39"
    opacity="1"
  />
  <rect
    x="674"
    y="46"
    width="14"
    height="14"
    rx="4"
    fill="#9be9a8"
    opacity="1"
  />
  <rect
    x="690"
    y="46"
    width="14"
    height="14"
    rx="4"
    fill="#216e39"
    opacity="1"
  />
  <rect
    x="706"
    y="46"
    width="14"
    height="14"
    rx="4"
    fill="#9be9a8"
    opacity="1"
  />
  <rect
    x="722"
    y="46"
    width="14"
    height="14"
    rx="4"
    fill="#40c463"
    opacity="1"
  />
  <rect
    x="738"
    y="46"
    width="14"
    height="14"
    rx="4"
    fill="#161b22"
    opacity="0.95"
  />
  <rect
    x="754"
    y="46"
    width="14"
    height="14"
    rx="4"
    fill="#161b22"
    opacity="0.95"
  />
  <rect
    x="770"
    y="46"
    width="14"
    height="14"
    rx="4"
    fill="#30a14e"
    opacity="1"
  />
  <rect
    x="786"
    y="46"
    width="14"
    height="14"
    rx="4"
    fill="#30a14e"
    opacity="1"
  />
  <rect
    x="802"
    y="46"
    width="14"
    height="14"
    rx="4"
    fill="#216e39"
    opacity="1"
  />
  <rect
    x="818"
    y="46"
    width="14"
    height="14"
    rx="4"
    fill="#216e39"
    opacity="1"
  />
  <rect
    x="834"
    y="46"
    width="14"
    height="14"
    rx="4"
    fill="#161b22"
    opacity="0.95"
  />
  <rect
    x="850"
    y="46"
    width="14"
    height="14"
    rx="4"
    fill="#216e39"
    opacity="1"
  />
  <rect
    x="18"
    y="62"
    width="14"
    height="14"
    rx="4"
    fill="#161b22"
    opacity="0.95"
  />
  <rect
    x="34"
    y="62"
    width="14"
    height="14"
    rx="4"
    fill="#161b22"
    opacity="0.95"
  />
  <rect
    x="50"
    y="62"
    width="14"
    height="14"
    rx="4"
    fill="#161b22"
    opacity="0.95"
  />
  <rect
    x="66"
    y="62"
    width="14"
    height="14"
    rx="4"
    fill="#161b22"
    opacity="0.95"
  />
  <rect
    x="82"
    y="62"
    width="14"
    height="14"
    rx="4"
    fill="#30a14e"
    opacity="1"
  />
  <rect
    x="98"
    y="62"
    width="14"
    height="14"
    rx="4"
    fill="#40c463"
    opacity="1"
  />
  <rect
    x="114"
    y="62"
    width="14"
    height="14"
    rx="4"
    fill="#9be9a8"
    opacity="1"
  />
  <rect
    x="130"
    y="62"
    width="14"
    height="14"
    rx="4"
    fill="#216e39"
    opacity="1"
  />
  <rect
    x="146"
    y="62"
    width="14"
    height="14"
    rx="4"
    fill="#161b22"
    opacity="0.95"
  />
  <rect
    x="162"
    y="62"
    width="14"
    height="14"
    rx="4"
    fill="#40c463"
    opacity="1"
  />
  <rect
    x="178"
    y="62"
    width="14"
    height="14"
    rx="4"
    fill="#40c463"
    opacity="1"
  />
  <rect
    x="194"
    y="62"
    width="14"
    height="14"
    rx="4"
    fill="#30a14e"
    opacity="1"
  />
  <rect
    x="210"
    y="62"
    width="14"
    height="14"
    rx="4"
    fill="#216e39"
    opacity="1"
  />
  <rect
    x="226"
    y="62"
    width="14"
    height="14"
    rx="4"
    fill="#216e39"
    opacity="1"
  />
  <rect
    x="242"
    y="62"
    width="14"
    height="14"
    rx="4"
    fill="#161b22"
    opacity="0.95"
  />
  <rect
    x="258"
    y="62"
    width="14"
    height="14"
    rx="4"
    fill="#161b22"
    opacity="0.95"
  />
  <rect
    x="274"
    y="62"
    width="14"
    height="14"
    rx="4"
    fill="#216e39"
    opacity="1"
  />
  <rect
    x="290"
    y="62"
    width="14"
    height="14"
    rx="4"
    fill="#161b22"
    opacity="0.95"
  />
  <rect
    x="306"
    y="62"
    width="14"
    height="14"
    rx="4"
    fill="#30a14e"
    opacity="1"
  />
  <rect
    x="322"
    y="62"
    width="14"
    height="14"
    rx="4"
    fill="#9be9a8"
    opacity="1"
  />
  <rect
    x="338"
    y="62"
    width="14"
    height="14"
    rx="4"
    fill="#40c463"
    opacity="1"
  />
  <rect
    x="354"
    y="62"
    width="14"
    height="14"
    rx="4"
    fill="#161b22"
    opacity="0.95"
  />
  <rect
    x="370"
    y="62"
    width="14"
    height="14"
    rx="4"
    fill="#30a14e"
    opacity="1"
  />
  <rect
    x="386"
    y="62"
    width="14"
    height="14"
    rx="4"
    fill="#9be9a8"
    opacity="1"
  />
  <rect
    x="402"
    y="62"
    width="14"
    height="14"
    rx="4"
    fill="#161b22"
    opacity="0.95"
  />
  <rect
    x="418"
    y="62"
    width="14"
    height="14"
    rx="4"
    fill="#40c463"
    opacity="1"
  />
  <rect
    x="434"
    y="62"
    width="14"
    height="14"
    rx="4"
    fill="#30a14e"
    opacity="1"
  />
  <rect
    x="450"
    y="62"
    width="14"
    height="14"
    rx="4"
    fill="#161b22"
    opacity="0.95"
  />
  <rect
    x="466"
    y="62"
    width="14"
    height="14"
    rx="4"
    fill="#216e39"
    opacity="1"
  />
  <rect
    x="482"
    y="62"
    width="14"
    height="14"
    rx="4"
    fill="#161b22"
    opacity="0.95"
  />
  <rect
    x="498"
    y="62"
    width="14"
    height="14"
    rx="4"
    fill="#216e39"
    opacity="1"
  />
  <rect
    x="514"
    y="62"
    width="14"
    height="14"
    rx="4"
    fill="#9be9a8"
    opacity="1"
  />
  <rect
    x="530"
    y="62"
    width="14"
    height="14"
    rx="4"
    fill="#161b22"
    opacity="0.95"
  />
  <rect
    x="546"
    y="62"
    width="14"
    height="14"
    rx="4"
    fill="#9be9a8"
    opacity="1"
  />
  <rect
    x="562"
    y="62"
    width="14"
    height="14"
    rx="4"
    fill="#161b22"
    opacity="0.95"
  />
  <rect
    x="578"
    y="62"
    width="14"
    height="14"
    rx="4"
    fill="#9be9a8"
    opacity="1"
  />
  <rect
    x="594"
    y="62"
    width="14"
    height="14"
    rx="4"
    fill="#161b22"
    opacity="0.95"
  />
  <rect
    x="610"
    y="62"
    width="14"
    height="14"
    rx="4"
    fill="#216e39"
    opacity="1"
  />
  <rect
    x="626"
    y="62"
    width="14"
    height="14"
    rx="4"
    fill="#9be9a8"
    opacity="1"
  />
  <rect
    x="642"
    y="62"
    width="14"
    height="14"
    rx="4"
    fill="#9be9a8"
    opacity="1"
  />
  <rect
    x="658"
    y="62"
    width="14"
    height="14"
    rx="4"
    fill="#9be9a8"
    opacity="1"
  />
  <rect
    x="674"
    y="62"
    width="14"
    height="14"
    rx="4"
    fill="#161b22"
    opacity="0.95"
  />
  <rect
    x="690"
    y="62"
    width="14"
    height="14"
    rx="4"
    fill="#9be9a8"
    opacity="1"
  />
  <rect
    x="706"
    y="62"
    width="14"
    height="14"
    rx="4"
    fill="#161b22"
    opacity="0.95"
  />
  <rect
    x="722"
    y="62"
    width="14"
    height="14"
    rx="4"
    fill="#9be9a8"
    opacity="1"
  />
  <rect
    x="738"
    y="62"
    width="14"
    height="14"
    rx="4"
    fill="#161b22"
    opacity="0.95"
  />
  <rect
    x="754"
    y="62"
    width="14"
    height="14"
    rx="4"
    fill="#161b22"
    opacity="0.95"
  />
  <rect
    x="770"
    y="62"
    width="14"
    height="14"
    rx="4"
    fill="#216e39"
    opacity="1"
  />
  <rect
    x="786"
    y="62"
    width="14"
    height="14"
    rx="4"
    fill="#30a14e"
    opacity="1"
  />
  <rect
    x="802"
    y="62"
    width="14"
    height="14"
    rx="4"
    fill="#9be9a8"
    opacity="1"
  />
  <rect
    x="818"
    y="62"
    width="14"
    height="14"
    rx="4"
    fill="#216e39"
    opacity="1"
  />
  <rect
    x="834"
    y="62"
    width="14"
    height="14"
    rx="4"
    fill="#40c463"
    opacity="1"
  />
  <rect
    x="850"
    y="62"
    width="14"
    height="14"
    rx="4"
    fill="#161b22"
    opacity="0.95"
  />
  <rect
    x="18"
    y="78"
    width="14"
    height="14"
    rx="4"
    fill="#161b22"
    opacity="0.95"
  />
  <rect
    x="34"
    y="78"
    width="14"
    height="14"
    rx="4"
    fill="#30a14e"
    opacity="1"
  />
  <rect
    x="50"
    y="78"
    width="14"
    height="14"
    rx="4"
    fill="#216e39"
    opacity="1"
  />
  <rect
    x="66"
    y="78"
    width="14"
    height="14"
    rx="4"
    fill="#30a14e"
    opacity="1"
  />
  <rect
    x="82"
    y="78"
    width="14"
    height="14"
    rx="4"
    fill="#161b22"
    opacity="0.95"
  />
  <rect
    x="98"
    y="78"
    width="14"
    height="14"
    rx="4"
    fill="#216e39"
    opacity="1"
  />
  <rect
    x="114"
    y="78"
    width="14"
    height="14"
    rx="4"
    fill="#161b22"
    opacity="0.95"
  />
  <rect
    x="130"
    y="78"
    width="14"
    height="14"
    rx="4"
    fill="#161b22"
    opacity="0.95"
  />
  <rect
    x="146"
    y="78"
    width="14"
    height="14"
    rx="4"
    fill="#40c463"
    opacity="1"
  />
  <rect
    x="162"
    y="78"
    width="14"
    height="14"
    rx="4"
    fill="#9be9a8"
    opacity="1"
  />
  <rect
    x="178"
    y="78"
    width="14"
    height="14"
    rx="4"
    fill="#161b22"
    opacity="0.95"
  />
  <rect
    x="194"
    y="78"
    width="14"
    height="14"
    rx="4"
    fill="#40c463"
    opacity="1"
  />
  <rect
    x="210"
    y="78"
    width="14"
    height="14"
    rx="4"
    fill="#9be9a8"
    opacity="1"
  />
  <rect
    x="226"
    y="78"
    width="14"
    height="14"
    rx="4"
    fill="#40c463"
    opacity="1"
  />
  <rect
    x="242"
    y="78"
    width="14"
    height="14"
    rx="4"
    fill="#216e39"
    opacity="1"
  />
  <rect
    x="258"
    y="78"
    width="14"
    height="14"
    rx="4"
    fill="#216e39"
    opacity="1"
  />
  <rect
    x="274"
    y="78"
    width="14"
    height="14"
    rx="4"
    fill="#161b22"
    opacity="0.95"
  />
  <rect
    x="290"
    y="78"
    width="14"
    height="14"
    rx="4"
    fill="#161b22"
    opacity="0.95"
  />
  <rect
    x="306"
    y="78"
    width="14"
    height="14"
    rx="4"
    fill="#216e39"
    opacity="1"
  />
  <rect
    x="322"
    y="78"
    width="14"
    height="14"
    rx="4"
    fill="#9be9a8"
    opacity="1"
  />
  <rect
    x="338"
    y="78"
    width="14"
    height="14"
    rx="4"
    fill="#9be9a8"
    opacity="1"
  />
  <rect
    x="354"
    y="78"
    width="14"
    height="14"
    rx="4"
    fill="#161b22"
    opacity="0.95"
  />
  <rect
    x="370"
    y="78"
    width="14"
    height="14"
    rx="4"
    fill="#40c463"
    opacity="1"
  />
  <rect
    x="386"
    y="78"
    width="14"
    height="14"
    rx="4"
    fill="#9be9a8"
    opacity="1"
  />
  <rect
    x="402"
    y="78"
    width="14"
    height="14"
    rx="4"
    fill="#9be9a8"
    opacity="1"
  />
  <rect
    x="418"
    y="78"
    width="14"
    height="14"
    rx="4"
    fill="#30a14e"
    opacity="1"
  />
  <rect
    x="434"
    y="78"
    width="14"
    height="14"
    rx="4"
    fill="#216e39"
    opacity="1"
  />
  <rect
    x="450"
    y="78"
    width="14"
    height="14"
    rx="4"
    fill="#30a14e"
    opacity="1"
  />
  <rect
    x="466"
    y="78"
    width="14"
    height="14"
    rx="4"
    fill="#9be9a8"
    opacity="1"
  />
  <rect
    x="482"
    y="78"
    width="14"
    height="14"
    rx="4"
    fill="#216e39"
    opacity="1"
  />
  <rect
    x="498"
    y="78"
    width="14"
    height="14"
    rx="4"
    fill="#161b22"
    opacity="0.95"
  />
  <rect
    x="514"
    y="78"
    width="14"
    height="14"
    rx="4"
    fill="#161b22"
    opacity="0.95"
  />
  <rect
    x="530"
    y="78"
    width="14"
    height="14"
    rx="4"
    fill="#161b22"
    opacity="0.95"
  />
  <rect
    x="546"
    y="78"
    width="14"
    height="14"
    rx="4"
    fill="#216e39"
    opacity="1"
  />
  <rect
    x="562"
    y="78"
    width="14"
    height="14"
    rx="4"
    fill="#9be9a8"
    opacity="1"
  />
  <rect
    x="578"
    y="78"
    width="14"
    height="14"
    rx="4"
    fill="#161b22"
    opacity="0.95"
  />
  <rect
    x="594"
    y="78"
    width="14"
    height="14"
    rx="4"
    fill="#161b22"
    opacity="0.95"
  />
  <rect
    x="610"
    y="78"
    width="14"
    height="14"
    rx="4"
    fill="#30a14e"
    opacity="1"
  />
  <rect
    x="626"
    y="78"
    width="14"
    height="14"
    rx="4"
    fill="#161b22"
    opacity="0.95"
  />
  <rect
    x="642"
    y="78"
    width="14"
    height="14"
    rx="4"
    fill="#161b22"
    opacity="0.95"
  />
  <rect
    x="658"
    y="78"
    width="14"
    height="14"
    rx="4"
    fill="#40c463"
    opacity="1"
  />
  <rect
    x="674"
    y="78"
    width="14"
    height="14"
    rx="4"
    fill="#9be9a8"
    opacity="1"
  />
  <rect
    x="690"
    y="78"
    width="14"
    height="14"
    rx="4"
    fill="#9be9a8"
    opacity="1"
  />
  <rect
    x="706"
    y="78"
    width="14"
    height="14"
    rx="4"
    fill="#216e39"
    opacity="1"
  />
  <rect
    x="722"
    y="78"
    width="14"
    height="14"
    rx="4"
    fill="#40c463"
    opacity="1"
  />
  <rect
    x="738"
    y="78"
    width="14"
    height="14"
    rx="4"
    fill="#161b22"
    opacity="0.95"
  />
  <rect
    x="754"
    y="78"
    width="14"
    height="14"
    rx="4"
    fill="#9be9a8"
    opacity="1"
  />
  <rect
    x="770"
    y="78"
    width="14"
    height="14"
    rx="4"
    fill="#40c463"
    opacity="1"
  />
  <rect
    x="786"
    y="78"
    width="14"
    height="14"
    rx="4"
    fill="#40c463"
    opacity="1"
  />
  <rect
    x="802"
    y="78"
    width="14"
    height="14"
    rx="4"
    fill="#161b22"
    opacity="0.95"
  />
  <rect
    x="818"
    y="78"
    width="14"
    height="14"
    rx="4"
    fill="#216e39"
    opacity="1"
  />
  <rect
    x="834"
    y="78"
    width="14"
    height="14"
    rx="4"
    fill="#161b22"
    opacity="0.95"
  />
  <rect
    x="850"
    y="78"
    width="14"
    height="14"
    rx="4"
    fill="#161b22"
    opacity="0.95"
  />
  <rect
    x="18"
    y="94"
    width="14"
    height="14"
    rx="4"
    fill="#161b22"
    opacity="0.95"
  />
  <rect
    x="34"
    y="94"
    width="14"
    height="14"
    rx="4"
    fill="#161b22"
    opacity="0.95"
  />
  <rect
    x="50"
    y="94"
    width="14"
    height="14"
    rx="4"
    fill="#216e39"
    opacity="1"
  />
  <rect
    x="66"
    y="94"
    width="14"
    height="14"
    rx="4"
    fill="#216e39"
    opacity="1"
  />
  <rect
    x="82"
    y="94"
    width="14"
    height="14"
    rx="4"
    fill="#216e39"
    opacity="1"
  />
  <rect
    x="98"
    y="94"
    width="14"
    height="14"
    rx="4"
    fill="#161b22"
    opacity="0.95"
  />
  <rect
    x="114"
    y="94"
    width="14"
    height="14"
    rx="4"
    fill="#216e39"
    opacity="1"
  />
  <rect
    x="130"
    y="94"
    width="14"
    height="14"
    rx="4"
    fill="#9be9a8"
    opacity="1"
  />
  <rect
    x="146"
    y="94"
    width="14"
    height="14"
    rx="4"
    fill="#30a14e"
    opacity="1"
  />
  <rect
    x="162"
    y="94"
    width="14"
    height="14"
    rx="4"
    fill="#161b22"
    opacity="0.95"
  />
  <rect
    x="178"
    y="94"
    width="14"
    height="14"
    rx="4"
    fill="#40c463"
    opacity="1"
  />
  <rect
    x="194"
    y="94"
    width="14"
    height="14"
    rx="4"
    fill="#9be9a8"
    opacity="1"
  />
  <rect
    x="210"
    y="94"
    width="14"
    height="14"
    rx="4"
    fill="#9be9a8"
    opacity="1"
  />
  <rect
    x="226"
    y="94"
    width="14"
    height="14"
    rx="4"
    fill="#161b22"
    opacity="0.95"
  />
  <rect
    x="242"
    y="94"
    width="14"
    height="14"
    rx="4"
    fill="#161b22"
    opacity="0.95"
  />
  <rect
    x="258"
    y="94"
    width="14"
    height="14"
    rx="4"
    fill="#216e39"
    opacity="1"
  />
  <rect
    x="274"
    y="94"
    width="14"
    height="14"
    rx="4"
    fill="#216e39"
    opacity="1"
  />
  <rect
    x="290"
    y="94"
    width="14"
    height="14"
    rx="4"
    fill="#216e39"
    opacity="1"
  />
  <rect
    x="306"
    y="94"
    width="14"
    height="14"
    rx="4"
    fill="#30a14e"
    opacity="1"
  />
  <rect
    x="322"
    y="94"
    width="14"
    height="14"
    rx="4"
    fill="#216e39"
    opacity="1"
  />
  <rect
    x="338"
    y="94"
    width="14"
    height="14"
    rx="4"
    fill="#40c463"
    opacity="1"
  />
  <rect
    x="354"
    y="94"
    width="14"
    height="14"
    rx="4"
    fill="#40c463"
    opacity="1"
  />
  <rect
    x="370"
    y="94"
    width="14"
    height="14"
    rx="4"
    fill="#161b22"
    opacity="0.95"
  />
  <rect
    x="386"
    y="94"
    width="14"
    height="14"
    rx="4"
    fill="#161b22"
    opacity="0.95"
  />
  <rect
    x="402"
    y="94"
    width="14"
    height="14"
    rx="4"
    fill="#161b22"
    opacity="0.95"
  />
  <rect
    x="418"
    y="94"
    width="14"
    height="14"
    rx="4"
    fill="#40c463"
    opacity="1"
  />
  <rect
    x="434"
    y="94"
    width="14"
    height="14"
    rx="4"
    fill="#30a14e"
    opacity="1"
  />
  <rect
    x="450"
    y="94"
    width="14"
    height="14"
    rx="4"
    fill="#40c463"
    opacity="1"
  />
  <rect
    x="466"
    y="94"
    width="14"
    height="14"
    rx="4"
    fill="#161b22"
    opacity="0.95"
  />
  <rect
    x="482"
    y="94"
    width="14"
    height="14"
    rx="4"
    fill="#30a14e"
    opacity="1"
  />
  <rect
    x="498"
    y="94"
    width="14"
    height="14"
    rx="4"
    fill="#40c463"
    opacity="1"
  />
  <rect
    x="514"
    y="94"
    width="14"
    height="14"
    rx="4"
    fill="#161b22"
    opacity="0.95"
  />
  <rect
    x="530"
    y="94"
    width="14"
    height="14"
    rx="4"
    fill="#216e39"
    opacity="1"
  />
  <rect
    x="546"
    y="94"
    width="14"
    height="14"
    rx="4"
    fill="#30a14e"
    opacity="1"
  />
  <rect
    x="562"
    y="94"
    width="14"
    height="14"
    rx="4"
    fill="#161b22"
    opacity="0.95"
  />
  <rect
    x="578"
    y="94"
    width="14"
    height="14"
    rx="4"
    fill="#161b22"
    opacity="0.95"
  />
  <rect
    x="594"
    y="94"
    width="14"
    height="14"
    rx="4"
    fill="#9be9a8"
    opacity="1"
  />
  <rect
    x="610"
    y="94"
    width="14"
    height="14"
    rx="4"
    fill="#161b22"
    opacity="0.95"
  />
  <rect
    x="626"
    y="94"
    width="14"
    height="14"
    rx="4"
    fill="#161b22"
    opacity="0.95"
  />
  <rect
    x="642"
    y="94"
    width="14"
    height="14"
    rx="4"
    fill="#161b22"
    opacity="0.95"
  />
  <rect
    x="658"
    y="94"
    width="14"
    height="14"
    rx="4"
    fill="#30a14e"
    opacity="1"
  />
  <rect
    x="674"
    y="94"
    width="14"
    height="14"
    rx="4"
    fill="#161b22"
    opacity="0.95"
  />
  <rect
    x="690"
    y="94"
    width="14"
    height="14"
    rx="4"
    fill="#161b22"
    opacity="0.95"
  />
  <rect
    x="706"
    y="94"
    width="14"
    height="14"
    rx="4"
    fill="#216e39"
    opacity="1"
  />
  <rect
    x="722"
    y="94"
    width="14"
    height="14"
    rx="4"
    fill="#161b22"
    opacity="0.95"
  />
  <rect
    x="738"
    y="94"
    width="14"
    height="14"
    rx="4"
    fill="#161b22"
    opacity="0.95"
  />
  <rect
    x="754"
    y="94"
    width="14"
    height="14"
    rx="4"
    fill="#9be9a8"
    opacity="1"
  />
  <rect
    x="770"
    y="94"
    width="14"
    height="14"
    rx="4"
    fill="#30a14e"
    opacity="1"
  />
  <rect
    x="786"
    y="94"
    width="14"
    height="14"
    rx="4"
    fill="#40c463"
    opacity="1"
  />
  <rect
    x="802"
    y="94"
    width="14"
    height="14"
    rx="4"
    fill="#161b22"
    opacity="0.95"
  />
  <rect
    x="818"
    y="94"
    width="14"
    height="14"
    rx="4"
    fill="#216e39"
    opacity="1"
  />
  <rect
    x="834"
    y="94"
    width="14"
    height="14"
    rx="4"
    fill="#161b22"
    opacity="0.95"
  />
  <rect
    x="850"
    y="94"
    width="14"
    height="14"
    rx="4"
    fill="#161b22"
    opacity="0.95"
  />
  <rect
    x="18"
    y="110"
    width="14"
    height="14"
    rx="4"
    fill="#161b22"
    opacity="0.95"
  />
  <rect
    x="34"
    y="110"
    width="14"
    height="14"
    rx="4"
    fill="#161b22"
    opacity="0.95"
  />
  <rect
    x="50"
    y="110"
    width="14"
    height="14"
    rx="4"
    fill="#161b22"
    opacity="0.95"
  />
  <rect
    x="66"
    y="110"
    width="14"
    height="14"
    rx="4"
    fill="#216e39"
    opacity="1"
  />
  <rect
    x="82"
    y="110"
    width="14"
    height="14"
    rx="4"
    fill="#40c463"
    opacity="1"
  />
  <rect
    x="98"
    y="110"
    width="14"
    height="14"
    rx="4"
    fill="#161b22"
    opacity="0.95"
  />
  <rect
    x="114"
    y="110"
    width="14"
    height="14"
    rx="4"
    fill="#40c463"
    opacity="1"
  />
  <rect
    x="130"
    y="110"
    width="14"
    height="14"
    rx="4"
    fill="#161b22"
    opacity="0.95"
  />
  <rect
    x="146"
    y="110"
    width="14"
    height="14"
    rx="4"
    fill="#216e39"
    opacity="1"
  />
  <rect
    x="162"
    y="110"
    width="14"
    height="14"
    rx="4"
    fill="#9be9a8"
    opacity="1"
  />
  <rect
    x="178"
    y="110"
    width="14"
    height="14"
    rx="4"
    fill="#216e39"
    opacity="1"
  />
  <rect
    x="194"
    y="110"
    width="14"
    height="14"
    rx="4"
    fill="#9be9a8"
    opacity="1"
  />
  <rect
    x="210"
    y="110"
    width="14"
    height="14"
    rx="4"
    fill="#40c463"
    opacity="1"
  />
  <rect
    x="226"
    y="110"
    width="14"
    height="14"
    rx="4"
    fill="#30a14e"
    opacity="1"
  />
  <rect
    x="242"
    y="110"
    width="14"
    height="14"
    rx="4"
    fill="#161b22"
    opacity="0.95"
  />
  <rect
    x="258"
    y="110"
    width="14"
    height="14"
    rx="4"
    fill="#161b22"
    opacity="0.95"
  />
  <rect
    x="274"
    y="110"
    width="14"
    height="14"
    rx="4"
    fill="#40c463"
    opacity="1"
  />
  <rect
    x="290"
    y="110"
    width="14"
    height="14"
    rx="4"
    fill="#161b22"
    opacity="0.95"
  />
  <rect
    x="306"
    y="110"
    width="14"
    height="14"
    rx="4"
    fill="#40c463"
    opacity="1"
  />
  <rect
    x="322"
    y="110"
    width="14"
    height="14"
    rx="4"
    fill="#216e39"
    opacity="1"
  />
  <rect
    x="338"
    y="110"
    width="14"
    height="14"
    rx="4"
    fill="#40c463"
    opacity="1"
  />
  <rect
    x="354"
    y="110"
    width="14"
    height="14"
    rx="4"
    fill="#161b22"
    opacity="0.95"
  />
  <rect
    x="370"
    y="110"
    width="14"
    height="14"
    rx="4"
    fill="#40c463"
    opacity="1"
  />
  <rect
    x="386"
    y="110"
    width="14"
    height="14"
    rx="4"
    fill="#161b22"
    opacity="0.95"
  />
  <rect
    x="402"
    y="110"
    width="14"
    height="14"
    rx="4"
    fill="#9be9a8"
    opacity="1"
  />
  <rect
    x="418"
    y="110"
    width="14"
    height="14"
    rx="4"
    fill="#161b22"
    opacity="0.95"
  />
  <rect
    x="434"
    y="110"
    width="14"
    height="14"
    rx="4"
    fill="#9be9a8"
    opacity="1"
  />
  <rect
    x="450"
    y="110"
    width="14"
    height="14"
    rx="4"
    fill="#161b22"
    opacity="0.95"
  />
  <rect
    x="466"
    y="110"
    width="14"
    height="14"
    rx="4"
    fill="#40c463"
    opacity="1"
  />
  <rect
    x="482"
    y="110"
    width="14"
    height="14"
    rx="4"
    fill="#161b22"
    opacity="0.95"
  />
  <rect
    x="498"
    y="110"
    width="14"
    height="14"
    rx="4"
    fill="#9be9a8"
    opacity="1"
  />
  <rect
    x="514"
    y="110"
    width="14"
    height="14"
    rx="4"
    fill="#161b22"
    opacity="0.95"
  />
  <rect
    x="530"
    y="110"
    width="14"
    height="14"
    rx="4"
    fill="#161b22"
    opacity="0.95"
  />
  <rect
    x="546"
    y="110"
    width="14"
    height="14"
    rx="4"
    fill="#161b22"
    opacity="0.95"
  />
  <rect
    x="562"
    y="110"
    width="14"
    height="14"
    rx="4"
    fill="#161b22"
    opacity="0.95"
  />
  <rect
    x="578"
    y="110"
    width="14"
    height="14"
    rx="4"
    fill="#161b22"
    opacity="0.95"
  />
  <rect
    x="594"
    y="110"
    width="14"
    height="14"
    rx="4"
    fill="#30a14e"
    opacity="1"
  />
  <rect
    x="610"
    y="110"
    width="14"
    height="14"
    rx="4"
    fill="#161b22"
    opacity="0.95"
  />
  <rect
    x="626"
    y="110"
    width="14"
    height="14"
    rx="4"
    fill="#161b22"
    opacity="0.95"
  />
  <rect
    x="642"
    y="110"
    width="14"
    height="14"
    rx="4"
    fill="#161b22"
    opacity="0.95"
  />
  <rect
    x="658"
    y="110"
    width="14"
    height="14"
    rx="4"
    fill="#40c463"
    opacity="1"
  />
  <rect
    x="674"
    y="110"
    width="14"
    height="14"
    rx="4"
    fill="#216e39"
    opacity="1"
  />
  <rect
    x="690"
    y="110"
    width="14"
    height="14"
    rx="4"
    fill="#161b22"
    opacity="0.95"
  />
  <rect
    x="706"
    y="110"
    width="14"
    height="14"
    rx="4"
    fill="#9be9a8"
    opacity="1"
  />
  <rect
    x="722"
    y="110"
    width="14"
    height="14"
    rx="4"
    fill="#9be9a8"
    opacity="1"
  />
  <rect
    x="738"
    y="110"
    width="14"
    height="14"
    rx="4"
    fill="#9be9a8"
    opacity="1"
  />
  <rect
    x="754"
    y="110"
    width="14"
    height="14"
    rx="4"
    fill="#161b22"
    opacity="0.95"
  />
  <rect
    x="770"
    y="110"
    width="14"
    height="14"
    rx="4"
    fill="#161b22"
    opacity="0.95"
  />
  <rect
    x="786"
    y="110"
    width="14"
    height="14"
    rx="4"
    fill="#216e39"
    opacity="1"
  />
  <rect
    x="802"
    y="110"
    width="14"
    height="14"
    rx="4"
    fill="#40c463"
    opacity="1"
  />
  <rect
    x="818"
    y="110"
    width="14"
    height="14"
    rx="4"
    fill="#40c463"
    opacity="1"
  />
  <rect
    x="834"
    y="110"
    width="14"
    height="14"
    rx="4"
    fill="#30a14e"
    opacity="1"
  />
  <rect
    x="850"
    y="110"
    width="14"
    height="14"
    rx="4"
    fill="#40c463"
    opacity="1"
  />
  <rect
    x="18"
    y="126"
    width="14"
    height="14"
    rx="4"
    fill="#9be9a8"
    opacity="1"
  />
  <rect
    x="34"
    y="126"
    width="14"
    height="14"
    rx="4"
    fill="#40c463"
    opacity="1"
  />
  <rect
    x="50"
    y="126"
    width="14"
    height="14"
    rx="4"
    fill="#161b22"
    opacity="0.95"
  />
  <rect
    x="66"
    y="126"
    width="14"
    height="14"
    rx="4"
    fill="#216e39"
    opacity="1"
  />
  <rect
    x="82"
    y="126"
    width="14"
    height="14"
    rx="4"
    fill="#40c463"
    opacity="1"
  />
  <rect
    x="98"
    y="126"
    width="14"
    height="14"
    rx="4"
    fill="#161b22"
    opacity="0.95"
  />
  <rect
    x="114"
    y="126"
    width="14"
    height="14"
    rx="4"
    fill="#30a14e"
    opacity="1"
  />
  <rect
    x="130"
    y="126"
    width="14"
    height="14"
    rx="4"
    fill="#40c463"
    opacity="1"
  />
  <rect
    x="146"
    y="126"
    width="14"
    height="14"
    rx="4"
    fill="#216e39"
    opacity="1"
  />
  <rect
    x="162"
    y="126"
    width="14"
    height="14"
    rx="4"
    fill="#161b22"
    opacity="0.95"
  />
  <rect
    x="178"
    y="126"
    width="14"
    height="14"
    rx="4"
    fill="#161b22"
    opacity="0.95"
  />
  <rect
    x="194"
    y="126"
    width="14"
    height="14"
    rx="4"
    fill="#9be9a8"
    opacity="1"
  />
  <rect
    x="210"
    y="126"
    width="14"
    height="14"
    rx="4"
    fill="#30a14e"
    opacity="1"
  />
  <rect
    x="226"
    y="126"
    width="14"
    height="14"
    rx="4"
    fill="#161b22"
    opacity="0.95"
  />
  <rect
    x="242"
    y="126"
    width="14"
    height="14"
    rx="4"
    fill="#161b22"
    opacity="0.95"
  />
  <rect
    x="258"
    y="126"
    width="14"
    height="14"
    rx="4"
    fill="#9be9a8"
    opacity="1"
  />
  <rect
    x="274"
    y="126"
    width="14"
    height="14"
    rx="4"
    fill="#30a14e"
    opacity="1"
  />
  <rect
    x="290"
    y="126"
    width="14"
    height="14"
    rx="4"
    fill="#161b22"
    opacity="0.95"
  />
  <rect
    x="306"
    y="126"
    width="14"
    height="14"
    rx="4"
    fill="#216e39"
    opacity="1"
  />
  <rect
    x="322"
    y="126"
    width="14"
    height="14"
    rx="4"
    fill="#40c463"
    opacity="1"
  />
  <rect
    x="338"
    y="126"
    width="14"
    height="14"
    rx="4"
    fill="#161b22"
    opacity="0.95"
  />
  <rect
    x="354"
    y="126"
    width="14"
    height="14"
    rx="4"
    fill="#40c463"
    opacity="1"
  />
  <rect
    x="370"
    y="126"
    width="14"
    height="14"
    rx="4"
    fill="#30a14e"
    opacity="1"
  />
  <rect
    x="386"
    y="126"
    width="14"
    height="14"
    rx="4"
    fill="#40c463"
    opacity="1"
  />
  <rect
    x="402"
    y="126"
    width="14"
    height="14"
    rx="4"
    fill="#40c463"
    opacity="1"
  />
  <rect
    x="418"
    y="126"
    width="14"
    height="14"
    rx="4"
    fill="#9be9a8"
    opacity="1"
  />
  <rect
    x="434"
    y="126"
    width="14"
    height="14"
    rx="4"
    fill="#161b22"
    opacity="0.95"
  />
  <rect
    x="450"
    y="126"
    width="14"
    height="14"
    rx="4"
    fill="#161b22"
    opacity="0.95"
  />
  <rect
    x="466"
    y="126"
    width="14"
    height="14"
    rx="4"
    fill="#30a14e"
    opacity="1"
  />
  <rect
    x="482"
    y="126"
    width="14"
    height="14"
    rx="4"
    fill="#9be9a8"
    opacity="1"
  />
  <rect
    x="498"
    y="126"
    width="14"
    height="14"
    rx="4"
    fill="#161b22"
    opacity="0.95"
  />
  <rect
    x="514"
    y="126"
    width="14"
    height="14"
    rx="4"
    fill="#9be9a8"
    opacity="1"
  />
  <rect
    x="530"
    y="126"
    width="14"
    height="14"
    rx="4"
    fill="#161b22"
    opacity="0.95"
  />
  <rect
    x="546"
    y="126"
    width="14"
    height="14"
    rx="4"
    fill="#9be9a8"
    opacity="1"
  />
  <rect
    x="562"
    y="126"
    width="14"
    height="14"
    rx="4"
    fill="#40c463"
    opacity="1"
  />
  <rect
    x="578"
    y="126"
    width="14"
    height="14"
    rx="4"
    fill="#161b22"
    opacity="0.95"
  />
  <rect
    x="594"
    y="126"
    width="14"
    height="14"
    rx="4"
    fill="#30a14e"
    opacity="1"
  />
  <rect
    x="610"
    y="126"
    width="14"
    height="14"
    rx="4"
    fill="#30a14e"
    opacity="1"
  />
  <rect
    x="626"
    y="126"
    width="14"
    height="14"
    rx="4"
    fill="#9be9a8"
    opacity="1"
  />
  <rect
    x="642"
    y="126"
    width="14"
    height="14"
    rx="4"
    fill="#161b22"
    opacity="0.95"
  />
  <rect
    x="658"
    y="126"
    width="14"
    height="14"
    rx="4"
    fill="#216e39"
    opacity="1"
  />
  <rect
    x="674"
    y="126"
    width="14"
    height="14"
    rx="4"
    fill="#161b22"
    opacity="0.95"
  />
  <rect
    x="690"
    y="126"
    width="14"
    height="14"
    rx="4"
    fill="#161b22"
    opacity="0.95"
  />
  <rect
    x="706"
    y="126"
    width="14"
    height="14"
    rx="4"
    fill="#161b22"
    opacity="0.95"
  />
  <rect
    x="722"
    y="126"
    width="14"
    height="14"
    rx="4"
    fill="#216e39"
    opacity="1"
  />
  <rect
    x="738"
    y="126"
    width="14"
    height="14"
    rx="4"
    fill="#161b22"
    opacity="0.95"
  />
  <rect
    x="754"
    y="126"
    width="14"
    height="14"
    rx="4"
    fill="#161b22"
    opacity="0.95"
  />
  <rect
    x="770"
    y="126"
    width="14"
    height="14"
    rx="4"
    fill="#30a14e"
    opacity="1"
  />
  <rect
    x="786"
    y="126"
    width="14"
    height="14"
    rx="4"
    fill="#161b22"
    opacity="0.95"
  />
  <rect
    x="802"
    y="126"
    width="14"
    height="14"
    rx="4"
    fill="#161b22"
    opacity="0.95"
  />
  <rect
    x="818"
    y="126"
    width="14"
    height="14"
    rx="4"
    fill="#40c463"
    opacity="1"
  />
  <rect
    x="834"
    y="126"
    width="14"
    height="14"
    rx="4"
    fill="#161b22"
    opacity="0.95"
  />
  <rect
    x="850"
    y="126"
    width="14"
    height="14"
    rx="4"
    fill="#40c463"
    opacity="1"
  />
  <rect
    x="18"
    y="142"
    width="14"
    height="14"
    rx="4"
    fill="#161b22"
    opacity="0.95"
  />
  <rect
    x="34"
    y="142"
    width="14"
    height="14"
    rx="4"
    fill="#216e39"
    opacity="1"
  />
  <rect
    x="50"
    y="142"
    width="14"
    height="14"
    rx="4"
    fill="#40c463"
    opacity="1"
  />
  <rect
    x="66"
    y="142"
    width="14"
    height="14"
    rx="4"
    fill="#40c463"
    opacity="1"
  />
  <rect
    x="82"
    y="142"
    width="14"
    height="14"
    rx="4"
    fill="#161b22"
    opacity="0.95"
  />
  <rect
    x="98"
    y="142"
    width="14"
    height="14"
    rx="4"
    fill="#9be9a8"
    opacity="1"
  />
  <rect
    x="114"
    y="142"
    width="14"
    height="14"
    rx="4"
    fill="#9be9a8"
    opacity="1"
  />
  <rect
    x="130"
    y="142"
    width="14"
    height="14"
    rx="4"
    fill="#161b22"
    opacity="0.95"
  />
  <rect
    x="146"
    y="142"
    width="14"
    height="14"
    rx="4"
    fill="#161b22"
    opacity="0.95"
  />
  <rect
    x="162"
    y="142"
    width="14"
    height="14"
    rx="4"
    fill="#161b22"
    opacity="0.95"
  />
  <rect
    x="178"
    y="142"
    width="14"
    height="14"
    rx="4"
    fill="#216e39"
    opacity="1"
  />
  <rect
    x="194"
    y="142"
    width="14"
    height="14"
    rx="4"
    fill="#161b22"
    opacity="0.95"
  />
  <rect
    x="210"
    y="142"
    width="14"
    height="14"
    rx="4"
    fill="#161b22"
    opacity="0.95"
  />
  <rect
    x="226"
    y="142"
    width="14"
    height="14"
    rx="4"
    fill="#9be9a8"
    opacity="1"
  />
  <rect
    x="242"
    y="142"
    width="14"
    height="14"
    rx="4"
    fill="#161b22"
    opacity="0.95"
  />
  <rect
    x="258"
    y="142"
    width="14"
    height="14"
    rx="4"
    fill="#161b22"
    opacity="0.95"
  />
  <rect
    x="274"
    y="142"
    width="14"
    height="14"
    rx="4"
    fill="#9be9a8"
    opacity="1"
  />
  <rect
    x="290"
    y="142"
    width="14"
    height="14"
    rx="4"
    fill="#161b22"
    opacity="0.95"
  />
  <rect
    x="306"
    y="142"
    width="14"
    height="14"
    rx="4"
    fill="#9be9a8"
    opacity="1"
  />
  <rect
    x="322"
    y="142"
    width="14"
    height="14"
    rx="4"
    fill="#40c463"
    opacity="1"
  />
  <rect
    x="338"
    y="142"
    width="14"
    height="14"
    rx="4"
    fill="#216e39"
    opacity="1"
  />
  <rect
    x="354"
    y="142"
    width="14"
    height="14"
    rx="4"
    fill="#161b22"
    opacity="0.95"
  />
  <rect
    x="370"
    y="142"
    width="14"
    height="14"
    rx="4"
    fill="#161b22"
    opacity="0.95"
  />
  <rect
    x="386"
    y="142"
    width="14"
    height="14"
    rx="4"
    fill="#30a14e"
    opacity="1"
  />
  <rect
    x="402"
    y="142"
    width="14"
    height="14"
    rx="4"
    fill="#9be9a8"
    opacity="1"
  />
  <rect
    x="418"
    y="142"
    width="14"
    height="14"
    rx="4"
    fill="#216e39"
    opacity="1"
  />
  <rect
    x="434"
    y="142"
    width="14"
    height="14"
    rx="4"
    fill="#161b22"
    opacity="0.95"
  />
  <rect
    x="450"
    y="142"
    width="14"
    height="14"
    rx="4"
    fill="#161b22"
    opacity="0.95"
  />
  <rect
    x="466"
    y="142"
    width="14"
    height="14"
    rx="4"
    fill="#9be9a8"
    opacity="1"
  />
  <rect
    x="482"
    y="142"
    width="14"
    height="14"
    rx="4"
    fill="#161b22"
    opacity="0.95"
  />
  <rect
    x="498"
    y="142"
    width="14"
    height="14"
    rx="4"
    fill="#216e39"
    opacity="1"
  />
  <rect
    x="514"
    y="142"
    width="14"
    height="14"
    rx="4"
    fill="#9be9a8"
    opacity="1"
  />
  <rect
    x="530"
    y="142"
    width="14"
    height="14"
    rx="4"
    fill="#161b22"
    opacity="0.95"
  />
  <rect
    x="546"
    y="142"
    width="14"
    height="14"
    rx="4"
    fill="#30a14e"
    opacity="1"
  />
  <rect
    x="562"
    y="142"
    width="14"
    height="14"
    rx="4"
    fill="#30a14e"
    opacity="1"
  />
  <rect
    x="578"
    y="142"
    width="14"
    height="14"
    rx="4"
    fill="#9be9a8"
    opacity="1"
  />
  <rect
    x="594"
    y="142"
    width="14"
    height="14"
    rx="4"
    fill="#161b22"
    opacity="0.95"
  />
  <rect
    x="610"
    y="142"
    width="14"
    height="14"
    rx="4"
    fill="#161b22"
    opacity="0.95"
  />
  <rect
    x="626"
    y="142"
    width="14"
    height="14"
    rx="4"
    fill="#9be9a8"
    opacity="1"
  />
  <rect
    x="642"
    y="142"
    width="14"
    height="14"
    rx="4"
    fill="#216e39"
    opacity="1"
  />
  <rect
    x="658"
    y="142"
    width="14"
    height="14"
    rx="4"
    fill="#161b22"
    opacity="0.95"
  />
  <rect
    x="674"
    y="142"
    width="14"
    height="14"
    rx="4"
    fill="#40c463"
    opacity="1"
  />
  <rect
    x="690"
    y="142"
    width="14"
    height="14"
    rx="4"
    fill="#9be9a8"
    opacity="1"
  />
  <rect
    x="706"
    y="142"
    width="14"
    height="14"
    rx="4"
    fill="#40c463"
    opacity="1"
  />
  <rect
    x="722"
    y="142"
    width="14"
    height="14"
    rx="4"
    fill="#9be9a8"
    opacity="1"
  />
  <rect
    x="738"
    y="142"
    width="14"
    height="14"
    rx="4"
    fill="#161b22"
    opacity="0.95"
  />
  <rect
    x="754"
    y="142"
    width="14"
    height="14"
    rx="4"
    fill="#9be9a8"
    opacity="1"
  />
  <rect
    x="770"
    y="142"
    width="14"
    height="14"
    rx="4"
    fill="#161b22"
    opacity="0.95"
  />
  <rect
    x="786"
    y="142"
    width="14"
    height="14"
    rx="4"
    fill="#161b22"
    opacity="0.95"
  />
  <rect
    x="802"
    y="142"
    width="14"
    height="14"
    rx="4"
    fill="#216e39"
    opacity="1"
  />
  <rect
    x="818"
    y="142"
    width="14"
    height="14"
    rx="4"
    fill="#30a14e"
    opacity="1"
  />
  <rect
    x="834"
    y="142"
    width="14"
    height="14"
    rx="4"
    fill="#161b22"
    opacity="0.95"
  />
  <rect
    x="850"
    y="142"
    width="14"
    height="14"
    rx="4"
    fill="#216e39"
    opacity="1"
  />
</svg>
